<svg width="18" height="18" viewBox="0 0 18 18" fill="none" xmlns="http://www.w3.org/2000/svg">
<path d="M11.4815 6.51718C13.582 8.61984 13.5531 11.9909 11.4941 14.0614C11.4903 14.0656 11.4857 14.0702 11.4815 14.0744L9.11899 16.4369C7.03528 18.5206 3.6452 18.5203 1.56181 16.4369C-0.521904 14.3535 -0.521904 10.963 1.56181 8.87968L2.86631 7.57517C3.21225 7.22924 3.80801 7.45916 3.82587 7.94804C3.84865 8.57108 3.96038 9.19704 4.16653 9.80151C4.23635 10.0062 4.18647 10.2326 4.03354 10.3855L3.57345 10.8456C2.58816 11.8309 2.55726 13.4352 3.53284 14.4302C4.51806 15.4349 6.13743 15.4409 7.13021 14.4481L9.4927 12.0859C10.4838 11.0948 10.4796 9.49291 9.4927 8.50597C9.36259 8.3761 9.23153 8.27521 9.12915 8.20472C9.05673 8.15498 8.99693 8.08901 8.95453 8.01207C8.91212 7.93512 8.88829 7.84933 8.88492 7.76154C8.871 7.39004 9.00263 7.00722 9.29618 6.71367L10.0364 5.97346C10.2305 5.77936 10.5349 5.75552 10.76 5.9126C11.0178 6.09258 11.2592 6.29489 11.4815 6.51718V6.51718ZM16.4362 1.56219C14.3528 -0.52124 10.9628 -0.521521 8.87905 1.56219L6.51655 3.92469C6.51233 3.92891 6.50776 3.93348 6.5039 3.9377C4.44494 6.00812 4.41607 9.37922 6.51655 11.4819C6.73884 11.7042 6.98025 11.9065 7.23799 12.0864C7.46306 12.2435 7.76759 12.2196 7.96165 12.0256L8.70183 11.2854C8.99539 10.9918 9.12701 10.609 9.11309 10.2375C9.10972 10.1497 9.08589 10.0639 9.04348 9.98696C9.00108 9.91001 8.94128 9.84404 8.86886 9.79431C8.76648 9.72382 8.63542 9.62292 8.50531 9.49305C7.51837 8.50611 7.51422 6.90418 8.50531 5.91309L10.8678 3.55094C11.8606 2.55817 13.4799 2.56414 14.4652 3.56887C15.4408 4.56379 15.4099 6.16812 14.4246 7.1534L13.9645 7.61349C13.8115 7.76642 13.7617 7.99283 13.8315 8.19751C14.0376 8.80199 14.1494 9.42794 14.1721 10.051C14.19 10.5399 14.7858 10.7698 15.1317 10.4238L16.4362 9.11934C18.52 7.03602 18.52 3.64555 16.4362 1.56219V1.56219Z" fill="#000000"/>
</svg>
