<svg width="188" height="28" viewBox="0 0 188 28" fill="none" xmlns="http://www.w3.org/2000/svg">
<path d="M44.1579 24.92C44.3819 25.272 44.4939 25.616 44.4939 25.952C44.4939 26.384 44.3099 26.744 43.9419 27.032C43.5899 27.32 43.1739 27.464 42.6939 27.464C42.3579 27.464 42.0379 27.384 41.7339 27.224C41.4459 27.064 41.2139 26.832 41.0379 26.528L39.5979 24.128C39.4059 23.808 39.1499 23.576 38.8299 23.432C38.5099 23.288 38.0779 23.216 37.5339 23.216C35.8539 23.216 34.3899 22.864 33.1419 22.16C31.9099 21.44 30.9579 20.432 30.2859 19.136C29.6139 17.824 29.2779 16.288 29.2779 14.528C29.2779 12.768 29.6139 11.24 30.2859 9.944C30.9579 8.632 31.9099 7.624 33.1419 6.92C34.3899 6.216 35.8539 5.864 37.5339 5.864C39.2139 5.864 40.6699 6.216 41.9019 6.92C43.1499 7.624 44.1099 8.632 44.7819 9.944C45.4539 11.24 45.7899 12.768 45.7899 14.528C45.7899 16.368 45.4219 17.96 44.6859 19.304C43.9659 20.632 42.9339 21.624 41.5899 22.28C42.3739 22.52 43.0059 23.032 43.4859 23.816L44.1579 24.92ZM37.5339 20.312C38.9419 20.312 40.0459 19.816 40.8459 18.824C41.6619 17.832 42.0699 16.4 42.0699 14.528C42.0699 12.656 41.6699 11.232 40.8699 10.256C40.0699 9.264 38.9579 8.768 37.5339 8.768C36.1099 8.768 34.9979 9.264 34.1979 10.256C33.4139 11.232 33.0219 12.656 33.0219 14.528C33.0219 16.4 33.4219 17.832 34.2219 18.824C35.0219 19.816 36.1259 20.312 37.5339 20.312ZM57.8885 10.976C58.4485 10.976 58.8885 11.128 59.2085 11.432C59.5445 11.736 59.7125 12.152 59.7125 12.68V21.488C59.7125 21.984 59.5365 22.384 59.1845 22.688C58.8485 22.992 58.4085 23.144 57.8645 23.144C57.3525 23.144 56.9445 23 56.6405 22.712C56.3365 22.424 56.1845 22.04 56.1845 21.56V21.32C55.8165 21.928 55.3285 22.392 54.7205 22.712C54.1285 23.032 53.4565 23.192 52.7045 23.192C51.2165 23.192 50.1045 22.784 49.3685 21.968C48.6485 21.136 48.2885 19.888 48.2885 18.224V12.68C48.2885 12.152 48.4485 11.736 48.7685 11.432C49.1045 11.128 49.5525 10.976 50.1125 10.976C50.6725 10.976 51.1125 11.128 51.4325 11.432C51.7525 11.736 51.9125 12.152 51.9125 12.68V18.296C51.9125 19 52.0565 19.52 52.3445 19.856C52.6485 20.192 53.1045 20.36 53.7125 20.36C54.4165 20.36 54.9845 20.12 55.4165 19.64C55.8645 19.16 56.0885 18.528 56.0885 17.744V12.68C56.0885 12.152 56.2485 11.736 56.5685 11.432C56.8885 11.128 57.3285 10.976 57.8885 10.976ZM71.9493 19.496C72.2693 19.496 72.5253 19.624 72.7173 19.88C72.9253 20.136 73.0293 20.464 73.0293 20.864C73.0293 21.136 72.9493 21.392 72.7893 21.632C72.6293 21.856 72.4053 22.048 72.1173 22.208C71.5733 22.496 70.9413 22.736 70.2213 22.928C69.5013 23.104 68.8373 23.192 68.2293 23.192C66.9493 23.192 65.8293 22.944 64.8693 22.448C63.9253 21.952 63.1973 21.248 62.6853 20.336C62.1733 19.408 61.9173 18.32 61.9173 17.072C61.9173 15.872 62.1653 14.808 62.6613 13.88C63.1573 12.952 63.8453 12.232 64.7253 11.72C65.6053 11.192 66.6053 10.928 67.7253 10.928C68.7973 10.928 69.7333 11.168 70.5333 11.648C71.3493 12.112 71.9813 12.784 72.4293 13.664C72.8773 14.528 73.1013 15.544 73.1013 16.712C73.1013 17.064 73.0133 17.336 72.8373 17.528C72.6773 17.704 72.4453 17.792 72.1413 17.792H65.4213C65.5333 18.736 65.8213 19.424 66.2853 19.856C66.7493 20.272 67.4133 20.48 68.2773 20.48C68.7413 20.48 69.1573 20.424 69.5253 20.312C69.8933 20.2 70.3013 20.048 70.7493 19.856C70.9733 19.76 71.1893 19.68 71.3973 19.616C71.6053 19.536 71.7893 19.496 71.9493 19.496ZM67.8213 13.424C67.1333 13.424 66.5813 13.648 66.1653 14.096C65.7493 14.528 65.5013 15.16 65.4213 15.992H70.0533C70.0053 15.144 69.7893 14.504 69.4053 14.072C69.0373 13.64 68.5093 13.424 67.8213 13.424ZM79.7542 23.192C78.7782 23.192 77.9302 23.112 77.2102 22.952C76.4902 22.792 75.8582 22.536 75.3142 22.184C75.0742 22.04 74.8902 21.848 74.7622 21.608C74.6342 21.368 74.5702 21.096 74.5702 20.792C74.5702 20.424 74.6742 20.12 74.8822 19.88C75.0902 19.624 75.3462 19.496 75.6502 19.496C75.8582 19.496 76.0662 19.536 76.2742 19.616C76.4822 19.68 76.6982 19.76 76.9222 19.856C77.3702 20.064 77.8102 20.232 78.2422 20.36C78.6742 20.472 79.2102 20.528 79.8502 20.528C80.4102 20.528 80.8422 20.44 81.1462 20.264C81.4662 20.088 81.6262 19.848 81.6262 19.544C81.6262 19.32 81.5542 19.144 81.4102 19.016C81.2822 18.872 81.0342 18.744 80.6662 18.632C80.2982 18.52 79.7142 18.384 78.9142 18.224C77.4902 17.952 76.4662 17.544 75.8422 17C75.2182 16.456 74.9062 15.696 74.9062 14.72C74.9062 14 75.1222 13.352 75.5542 12.776C76.0022 12.2 76.6102 11.752 77.3782 11.432C78.1462 11.096 79.0102 10.928 79.9702 10.928C80.6582 10.928 81.3302 11.016 81.9862 11.192C82.6422 11.368 83.2262 11.616 83.7382 11.936C84.2342 12.24 84.4822 12.688 84.4822 13.28C84.4822 13.664 84.3782 13.984 84.1702 14.24C83.9622 14.496 83.7062 14.624 83.4022 14.624C83.0342 14.624 82.5942 14.48 82.0822 14.192C81.6822 13.984 81.3142 13.832 80.9782 13.736C80.6582 13.624 80.2742 13.568 79.8262 13.568C79.3302 13.568 78.9382 13.664 78.6502 13.856C78.3622 14.032 78.2182 14.28 78.2182 14.6C78.2182 14.936 78.3862 15.192 78.7222 15.368C79.0582 15.544 79.7062 15.72 80.6662 15.896C81.7382 16.104 82.5782 16.36 83.1862 16.664C83.7942 16.952 84.2342 17.32 84.5062 17.768C84.7782 18.216 84.9142 18.784 84.9142 19.472C84.9142 20.608 84.4422 21.512 83.4982 22.184C82.5702 22.856 81.3222 23.192 79.7542 23.192ZM93.4203 20.504C93.9003 20.536 94.2523 20.656 94.4763 20.864C94.7003 21.072 94.8123 21.376 94.8123 21.776C94.8123 22.24 94.6283 22.592 94.2603 22.832C93.8923 23.072 93.3643 23.168 92.6763 23.12L92.0043 23.072C89.2043 22.848 87.8043 21.384 87.8043 18.68V13.928H86.8443C86.3163 13.928 85.9163 13.816 85.6443 13.592C85.3723 13.352 85.2363 13.016 85.2363 12.584C85.2363 12.136 85.3723 11.8 85.6443 11.576C85.9163 11.336 86.3163 11.216 86.8443 11.216H87.8043V9.344C87.8043 8.816 87.9643 8.4 88.2843 8.096C88.6203 7.792 89.0683 7.64 89.6283 7.64C90.1883 7.64 90.6283 7.792 90.9483 8.096C91.2683 8.4 91.4283 8.816 91.4283 9.344V11.216H93.1083C94.1963 11.216 94.7403 11.672 94.7403 12.584C94.7403 13.016 94.6043 13.352 94.3323 13.592C94.0603 13.816 93.6523 13.928 93.1083 13.928H91.4283V18.944C91.4283 19.424 91.5403 19.792 91.7643 20.048C91.9883 20.288 92.3163 20.424 92.7483 20.456L93.4203 20.504ZM97.9736 23.144C97.4456 23.144 97.0056 23 96.6536 22.712C96.3176 22.424 96.1496 22 96.1496 21.44V12.68C96.1496 12.12 96.3256 11.696 96.6776 11.408C97.0296 11.12 97.4616 10.976 97.9736 10.976C98.4856 10.976 98.9096 11.12 99.2456 11.408C99.5976 11.696 99.7736 12.12 99.7736 12.68V21.44C99.7736 22 99.5976 22.424 99.2456 22.712C98.9096 23 98.4856 23.144 97.9736 23.144ZM97.9736 9.056C97.3336 9.056 96.8296 8.896 96.4616 8.576C96.0936 8.24 95.9096 7.792 95.9096 7.232C95.9096 6.672 96.0936 6.232 96.4616 5.912C96.8296 5.592 97.3336 5.432 97.9736 5.432C98.5976 5.432 99.0936 5.6 99.4616 5.936C99.8456 6.256 100.038 6.688 100.038 7.232C100.038 7.792 99.8536 8.24 99.4856 8.576C99.1176 8.896 98.6136 9.056 97.9736 9.056ZM108.212 23.192C106.964 23.192 105.868 22.944 104.924 22.448C103.98 21.936 103.252 21.224 102.74 20.312C102.228 19.384 101.972 18.296 101.972 17.048C101.972 15.8 102.228 14.72 102.74 13.808C103.252 12.88 103.98 12.168 104.924 11.672C105.868 11.176 106.964 10.928 108.212 10.928C109.46 10.928 110.556 11.176 111.5 11.672C112.444 12.168 113.172 12.88 113.684 13.808C114.196 14.72 114.452 15.8 114.452 17.048C114.452 18.296 114.196 19.384 113.684 20.312C113.172 21.224 112.444 21.936 111.5 22.448C110.556 22.944 109.46 23.192 108.212 23.192ZM108.212 20.432C109.972 20.432 110.852 19.304 110.852 17.048C110.852 15.912 110.62 15.064 110.156 14.504C109.708 13.944 109.06 13.664 108.212 13.664C106.452 13.664 105.572 14.792 105.572 17.048C105.572 19.304 106.452 20.432 108.212 20.432ZM124.049 10.928C125.457 10.928 126.505 11.344 127.193 12.176C127.881 12.992 128.225 14.232 128.225 15.896V21.44C128.225 21.968 128.057 22.384 127.721 22.688C127.401 22.992 126.961 23.144 126.401 23.144C125.841 23.144 125.401 22.992 125.081 22.688C124.761 22.384 124.601 21.968 124.601 21.44V16.064C124.601 15.264 124.449 14.68 124.145 14.312C123.857 13.944 123.401 13.76 122.777 13.76C122.025 13.76 121.417 14 120.953 14.48C120.505 14.96 120.281 15.6 120.281 16.4V21.44C120.281 21.968 120.121 22.384 119.801 22.688C119.481 22.992 119.041 23.144 118.481 23.144C117.921 23.144 117.473 22.992 117.137 22.688C116.817 22.384 116.657 21.968 116.657 21.44V12.632C116.657 12.136 116.825 11.736 117.161 11.432C117.513 11.128 117.961 10.976 118.505 10.976C119.001 10.976 119.401 11.128 119.705 11.432C120.025 11.72 120.185 12.096 120.185 12.56V12.896C120.601 12.256 121.137 11.768 121.793 11.432C122.465 11.096 123.217 10.928 124.049 10.928ZM146.771 12.032C146.915 11.696 147.115 11.44 147.371 11.264C147.627 11.088 147.899 11 148.187 11C148.635 11 149.035 11.152 149.387 11.456C149.739 11.76 149.915 12.136 149.915 12.584C149.915 12.776 149.867 12.992 149.771 13.232L145.835 22.064C145.691 22.416 145.459 22.688 145.139 22.88C144.819 23.056 144.483 23.144 144.131 23.144C143.763 23.144 143.419 23.056 143.099 22.88C142.795 22.688 142.571 22.416 142.427 22.064L139.859 16.088L137.387 22.064C137.243 22.416 137.019 22.688 136.715 22.88C136.411 23.056 136.067 23.144 135.683 23.144C135.315 23.144 134.971 23.056 134.651 22.88C134.331 22.688 134.099 22.416 133.955 22.064L130.043 13.232C129.947 13.008 129.899 12.792 129.899 12.584C129.899 12.136 130.083 11.76 130.451 11.456C130.835 11.152 131.267 11 131.747 11C132.067 11 132.355 11.088 132.611 11.264C132.883 11.44 133.091 11.696 133.235 12.032L135.803 18.488L138.419 12.08C138.563 11.744 138.771 11.488 139.043 11.312C139.331 11.12 139.643 11.024 139.979 11.024C140.315 11.024 140.627 11.112 140.915 11.288C141.203 11.464 141.419 11.728 141.563 12.08L144.227 18.488L146.771 12.032ZM156.836 10.928C158.564 10.928 159.844 11.352 160.676 12.2C161.508 13.032 161.924 14.312 161.924 16.04V21.464C161.924 21.992 161.772 22.408 161.468 22.712C161.164 23 160.74 23.144 160.196 23.144C159.684 23.144 159.268 22.992 158.948 22.688C158.644 22.368 158.492 21.96 158.492 21.464V21.296C158.252 21.888 157.852 22.352 157.292 22.688C156.732 23.024 156.076 23.192 155.324 23.192C154.524 23.192 153.796 23.032 153.14 22.712C152.5 22.392 151.988 21.944 151.604 21.368C151.236 20.792 151.052 20.152 151.052 19.448C151.052 18.584 151.268 17.904 151.7 17.408C152.148 16.912 152.86 16.552 153.836 16.328C154.812 16.104 156.148 15.992 157.844 15.992H158.468V15.56C158.468 14.888 158.316 14.4 158.012 14.096C157.724 13.792 157.236 13.64 156.548 13.64C155.86 13.64 154.868 13.88 153.572 14.36C153.204 14.536 152.892 14.624 152.636 14.624C152.284 14.624 152.004 14.504 151.796 14.264C151.588 14.008 151.484 13.68 151.484 13.28C151.484 12.96 151.556 12.696 151.7 12.488C151.844 12.28 152.076 12.088 152.396 11.912C152.956 11.608 153.636 11.368 154.436 11.192C155.252 11.016 156.052 10.928 156.836 10.928ZM156.116 20.696C156.82 20.696 157.388 20.464 157.82 20C158.252 19.52 158.468 18.904 158.468 18.152V17.744H158.06C156.764 17.744 155.852 17.848 155.324 18.056C154.812 18.264 154.556 18.64 154.556 19.184C154.556 19.632 154.7 20 154.988 20.288C155.292 20.56 155.668 20.696 156.116 20.696ZM172.674 12.008C172.834 11.672 173.042 11.424 173.298 11.264C173.57 11.088 173.858 11 174.162 11C174.61 11 175.01 11.152 175.362 11.456C175.714 11.744 175.89 12.096 175.89 12.512C175.89 12.752 175.834 12.984 175.722 13.208L171.402 22.064C171.242 22.416 171.002 22.688 170.682 22.88C170.362 23.056 170.018 23.144 169.65 23.144C169.282 23.144 168.938 23.056 168.618 22.88C168.298 22.688 168.05 22.416 167.874 22.064L163.554 13.208C163.458 12.984 163.41 12.768 163.41 12.56C163.41 12.128 163.594 11.76 163.962 11.456C164.346 11.152 164.77 11 165.234 11C165.57 11 165.874 11.088 166.146 11.264C166.418 11.424 166.634 11.672 166.794 12.008L169.746 18.464L172.674 12.008ZM186.676 19.496C186.996 19.496 187.252 19.624 187.444 19.88C187.652 20.136 187.756 20.464 187.756 20.864C187.756 21.136 187.676 21.392 187.516 21.632C187.356 21.856 187.132 22.048 186.844 22.208C186.3 22.496 185.668 22.736 184.948 22.928C184.228 23.104 183.564 23.192 182.956 23.192C181.676 23.192 180.556 22.944 179.596 22.448C178.652 21.952 177.924 21.248 177.412 20.336C176.9 19.408 176.644 18.32 176.644 17.072C176.644 15.872 176.892 14.808 177.388 13.88C177.884 12.952 178.572 12.232 179.452 11.72C180.332 11.192 181.332 10.928 182.452 10.928C183.524 10.928 184.46 11.168 185.26 11.648C186.076 12.112 186.708 12.784 187.156 13.664C187.604 14.528 187.828 15.544 187.828 16.712C187.828 17.064 187.74 17.336 187.564 17.528C187.404 17.704 187.172 17.792 186.868 17.792H180.148C180.26 18.736 180.548 19.424 181.012 19.856C181.476 20.272 182.14 20.48 183.004 20.48C183.468 20.48 183.884 20.424 184.252 20.312C184.62 20.2 185.028 20.048 185.476 19.856C185.7 19.76 185.916 19.68 186.124 19.616C186.332 19.536 186.516 19.496 186.676 19.496ZM182.548 13.424C181.86 13.424 181.308 13.648 180.892 14.096C180.476 14.528 180.228 15.16 180.148 15.992H184.78C184.732 15.144 184.516 14.504 184.132 14.072C183.764 13.64 183.236 13.424 182.548 13.424Z" fill="#1B7EDA"/>
<path d="M20.5308 10.5844C19.9716 10.5844 19.4124 10.5044 18.8531 10.3444C18.2939 10.1684 17.6575 9.92838 16.944 9.62435C16.3462 9.38433 15.8834 9.20832 15.5556 9.09631C15.2278 8.9843 14.9193 8.9283 14.63 8.9283C14.1479 8.9283 13.7044 9.08031 13.2994 9.38433C12.8366 9.76837 12.4027 9.96038 11.9978 9.96038C11.7857 9.96038 11.5543 9.89638 11.3036 9.76837C11.13 9.67236 10.9854 9.54435 10.8697 9.38433C10.7733 9.20832 10.7251 9.0323 10.7251 8.85629C10.7251 8.63227 10.7925 8.43225 10.9275 8.25624C11.3132 7.72819 11.8049 7.32016 12.4027 7.03213C13.0198 6.74411 13.6658 6.6001 14.3407 6.6001C14.9 6.6001 15.4592 6.6881 16.0184 6.86412C16.5777 7.02413 17.214 7.25615 17.9275 7.56018C18.4675 7.7842 18.911 7.95221 19.2581 8.06422C19.6052 8.17623 19.933 8.23224 20.2416 8.23224C20.7236 8.23224 21.1672 8.08822 21.5721 7.8002C21.9964 7.41617 22.411 7.22415 22.8159 7.22415C23.0666 7.22415 23.3077 7.28816 23.5391 7.41617C23.7319 7.52818 23.8765 7.67219 23.9729 7.8482C24.0887 8.00822 24.1465 8.18423 24.1465 8.37625C24.1465 8.58427 24.079 8.77628 23.944 8.9523C23.5391 9.46434 23.0377 9.86438 22.4399 10.1524C21.8421 10.4404 21.2057 10.5844 20.5308 10.5844Z" fill="#1B7EDA"/>
<path d="M20.5308 16.5849C19.9716 16.5849 19.4124 16.5049 18.8531 16.3449C18.2939 16.1689 17.6575 15.9289 16.944 15.6249C16.3462 15.3848 15.8834 15.2088 15.5556 15.0968C15.2278 14.9848 14.9193 14.9288 14.63 14.9288C14.1479 14.9288 13.7044 15.0808 13.2994 15.3848C12.8366 15.7689 12.4027 15.9609 11.9978 15.9609C11.7857 15.9609 11.5543 15.8969 11.3036 15.7689C11.13 15.6729 10.9854 15.5449 10.8697 15.3848C10.7733 15.2088 10.7251 15.0328 10.7251 14.8568C10.7251 14.6328 10.7925 14.4328 10.9275 14.2567C11.3132 13.7287 11.8049 13.3207 12.4027 13.0326C13.0198 12.7446 13.6658 12.6006 14.3407 12.6006C14.9 12.6006 15.4592 12.6886 16.0184 12.8646C16.5777 13.0246 17.214 13.2567 17.9275 13.5607C18.4675 13.7847 18.911 13.9527 19.2581 14.0647C19.6052 14.1767 19.933 14.2327 20.2416 14.2327C20.7236 14.2327 21.1672 14.0887 21.5721 13.8007C21.9964 13.4167 22.411 13.2247 22.8159 13.2247C23.0666 13.2247 23.3077 13.2887 23.5391 13.4167C23.7319 13.5287 23.8765 13.6727 23.9729 13.8487C24.0887 14.0087 24.1465 14.1847 24.1465 14.3768C24.1465 14.5848 24.079 14.7768 23.944 14.9528C23.5391 15.4649 23.0377 15.8649 22.4399 16.1529C21.8421 16.4409 21.2057 16.5849 20.5308 16.5849Z" fill="#1B7EDA"/>
<path d="M20.5308 22.5855C19.9716 22.5855 19.4124 22.5055 18.8531 22.3454C18.2939 22.1694 17.6575 21.9294 16.944 21.6254C16.3462 21.3854 15.8834 21.2093 15.5556 21.0973C15.2278 20.9853 14.9193 20.9293 14.63 20.9293C14.1479 20.9293 13.7044 21.0813 13.2994 21.3854C12.8366 21.7694 12.4027 21.9614 11.9978 21.9614C11.7857 21.9614 11.5543 21.8974 11.3036 21.7694C11.13 21.6734 10.9854 21.5454 10.8697 21.3854C10.7733 21.2093 10.7251 21.0333 10.7251 20.8573C10.7251 20.6333 10.7925 20.4333 10.9275 20.2573C11.3132 19.7292 11.8049 19.3212 12.4027 19.0332C13.0198 18.7451 13.6658 18.6011 14.3407 18.6011C14.9 18.6011 15.4592 18.6891 16.0184 18.8651C16.5777 19.0252 17.214 19.2572 17.9275 19.5612C18.4675 19.7852 18.911 19.9532 19.2581 20.0652C19.6052 20.1773 19.933 20.2333 20.2416 20.2333C20.7236 20.2333 21.1672 20.0892 21.5721 19.8012C21.9964 19.4172 22.411 19.2252 22.8159 19.2252C23.0666 19.2252 23.3077 19.2892 23.5391 19.4172C23.7319 19.5292 23.8765 19.6732 23.9729 19.8492C24.0887 20.0092 24.1465 20.1853 24.1465 20.3773C24.1465 20.5853 24.079 20.7773 23.944 20.9533C23.5391 21.4654 23.0377 21.8654 22.4399 22.1534C21.8421 22.4414 21.2057 22.5855 20.5308 22.5855Z" fill="#1B7EDA"/>
<path d="M10.191 10.5844C9.63178 10.5844 9.07256 10.5044 8.51333 10.3444C7.9541 10.1684 7.31774 9.92838 6.60424 9.62435C6.00645 9.38433 5.54364 9.20832 5.21582 9.09631C4.888 8.9843 4.57946 8.9283 4.2902 8.9283C3.80811 8.9283 3.36458 9.08031 2.95963 9.38433C2.49682 9.76837 2.06294 9.96038 1.65798 9.96038C1.44586 9.96038 1.21445 9.89638 0.963765 9.76837C0.790211 9.67236 0.645584 9.54435 0.529882 9.38433C0.433463 9.20832 0.385254 9.0323 0.385254 8.85629C0.385254 8.63227 0.452747 8.43225 0.587733 8.25624C0.973407 7.72819 1.46514 7.32016 2.06294 7.03213C2.68001 6.74411 3.32602 6.6001 4.00095 6.6001C4.56017 6.6001 5.1194 6.6881 5.67863 6.86412C6.23785 7.02413 6.87422 7.25615 7.58771 7.56018C8.12766 7.7842 8.57118 7.95221 8.91829 8.06422C9.26539 8.17623 9.59322 8.23224 9.90176 8.23224C10.3838 8.23224 10.8274 8.08822 11.2323 7.8002C11.6566 7.41617 12.0712 7.22415 12.4761 7.22415C12.7268 7.22415 12.9679 7.28816 13.1993 7.41617C13.3921 7.52818 13.5367 7.67219 13.6332 7.8482C13.7489 8.00822 13.8067 8.18423 13.8067 8.37625C13.8067 8.58427 13.7392 8.77628 13.6042 8.9523C13.1993 9.46434 12.6979 9.86438 12.1001 10.1524C11.5023 10.4404 10.8659 10.5844 10.191 10.5844Z" fill="#1B7EDA"/>
<path d="M10.191 16.5849C9.63178 16.5849 9.07256 16.5049 8.51333 16.3449C7.9541 16.1689 7.31774 15.9289 6.60424 15.6249C6.00645 15.3848 5.54364 15.2088 5.21582 15.0968C4.888 14.9848 4.57946 14.9288 4.2902 14.9288C3.80811 14.9288 3.36458 15.0808 2.95963 15.3848C2.49682 15.7689 2.06294 15.9609 1.65798 15.9609C1.44586 15.9609 1.21445 15.8969 0.963765 15.7689C0.790211 15.6729 0.645584 15.5449 0.529882 15.3848C0.433463 15.2088 0.385254 15.0328 0.385254 14.8568C0.385254 14.6328 0.452747 14.4328 0.587733 14.2567C0.973407 13.7287 1.46514 13.3207 2.06294 13.0326C2.68001 12.7446 3.32602 12.6006 4.00095 12.6006C4.56017 12.6006 5.1194 12.6886 5.67863 12.8646C6.23785 13.0246 6.87422 13.2567 7.58771 13.5607C8.12766 13.7847 8.57118 13.9527 8.91829 14.0647C9.26539 14.1767 9.59322 14.2327 9.90176 14.2327C10.3838 14.2327 10.8274 14.0887 11.2323 13.8007C11.6566 13.4167 12.0712 13.2247 12.4761 13.2247C12.7268 13.2247 12.9679 13.2887 13.1993 13.4167C13.3921 13.5287 13.5367 13.6727 13.6332 13.8487C13.7489 14.0087 13.8067 14.1847 13.8067 14.3768C13.8067 14.5848 13.7392 14.7768 13.6042 14.9528C13.1993 15.4649 12.6979 15.8649 12.1001 16.1529C11.5023 16.4409 10.8659 16.5849 10.191 16.5849Z" fill="#1B7EDA"/>
<path d="M10.191 22.5855C9.63178 22.5855 9.07256 22.5055 8.51333 22.3454C7.9541 22.1694 7.31774 21.9294 6.60424 21.6254C6.00645 21.3854 5.54364 21.2093 5.21582 21.0973C4.888 20.9853 4.57946 20.9293 4.2902 20.9293C3.80811 20.9293 3.36458 21.0813 2.95963 21.3854C2.49682 21.7694 2.06294 21.9614 1.65798 21.9614C1.44586 21.9614 1.21445 21.8974 0.963765 21.7694C0.790211 21.6734 0.645584 21.5454 0.529882 21.3854C0.433463 21.2093 0.385254 21.0333 0.385254 20.8573C0.385254 20.6333 0.452747 20.4333 0.587733 20.2573C0.973407 19.7292 1.46514 19.3212 2.06294 19.0332C2.68001 18.7451 3.32602 18.6011 4.00095 18.6011C4.56017 18.6011 5.1194 18.6891 5.67863 18.8651C6.23785 19.0252 6.87422 19.2572 7.58771 19.5612C8.12766 19.7852 8.57118 19.9532 8.91829 20.0652C9.26539 20.1773 9.59322 20.2333 9.90176 20.2333C10.3838 20.2333 10.8274 20.0892 11.2323 19.8012C11.6566 19.4172 12.0712 19.2252 12.4761 19.2252C12.7268 19.2252 12.9679 19.2892 13.1993 19.4172C13.3921 19.5292 13.5367 19.6732 13.6332 19.8492C13.7489 20.0092 13.8067 20.1853 13.8067 20.3773C13.8067 20.5853 13.7392 20.7773 13.6042 20.9533C13.1993 21.4654 12.6979 21.8654 12.1001 22.1534C11.5023 22.4414 10.8659 22.5855 10.191 22.5855Z" fill="#1B7EDA"/>
</svg>
