<svg width="32" height="30" viewBox="0 0 32 30" fill="none" xmlns="http://www.w3.org/2000/svg">
<path fill-rule="evenodd" clip-rule="evenodd" d="M32 14C32 21.732 24.836 28 16 28C14.4153 28.0021 12.8372 27.7964 11.306 27.388C10.138 27.98 7.456 29.116 2.944 29.856C2.544 29.92 2.24 29.504 2.398 29.132C3.106 27.46 3.746 25.232 3.938 23.2C1.488 20.74 0 17.52 0 14C0 6.268 7.164 0 16 0C24.836 0 32 6.268 32 14ZM10 14C10 14.5304 9.78929 15.0391 9.41421 15.4142C9.03914 15.7893 8.53043 16 8 16C7.46957 16 6.96086 15.7893 6.58579 15.4142C6.21071 15.0391 6 14.5304 6 14C6 13.4696 6.21071 12.9609 6.58579 12.5858C6.96086 12.2107 7.46957 12 8 12C8.53043 12 9.03914 12.2107 9.41421 12.5858C9.78929 12.9609 10 13.4696 10 14ZM18 14C18 14.5304 17.7893 15.0391 17.4142 15.4142C17.0391 15.7893 16.5304 16 16 16C15.4696 16 14.9609 15.7893 14.5858 15.4142C14.2107 15.0391 14 14.5304 14 14C14 13.4696 14.2107 12.9609 14.5858 12.5858C14.9609 12.2107 15.4696 12 16 12C16.5304 12 17.0391 12.2107 17.4142 12.5858C17.7893 12.9609 18 13.4696 18 14ZM24 16C24.5304 16 25.0391 15.7893 25.4142 15.4142C25.7893 15.0391 26 14.5304 26 14C26 13.4696 25.7893 12.9609 25.4142 12.5858C25.0391 12.2107 24.5304 12 24 12C23.4696 12 22.9609 12.2107 22.5858 12.5858C22.2107 12.9609 22 13.4696 22 14C22 14.5304 22.2107 15.0391 22.5858 15.4142C22.9609 15.7893 23.4696 16 24 16Z" fill="#1B7EDA"/>
</svg>
