<svg width="33" height="32" viewBox="0 0 33 32" fill="none" xmlns="http://www.w3.org/2000/svg">
<path d="M16.9479 0C13.788 0 10.699 0.938383 8.07166 2.69649C5.44428 4.45459 3.39649 6.95345 2.18724 9.87706C0.977992 12.8007 0.661597 16.0177 1.27807 19.1214C1.89454 22.2251 3.41618 25.0761 5.65059 27.3137C7.88499 29.5513 10.7318 31.0752 13.831 31.6926C16.9302 32.3099 20.1426 31.9931 23.062 30.7821C25.9814 29.5711 28.4766 27.5203 30.2322 24.8891C31.9877 22.2579 32.9248 19.1645 32.9248 16C32.9248 11.7565 31.2415 7.68687 28.2453 4.68629C25.249 1.68571 21.1852 0 16.9479 0ZM27.3828 10.63L14.2618 23.76L6.51304 16C6.24821 15.7348 6.09943 15.3751 6.09943 15C6.09943 14.6249 6.24821 14.2652 6.51304 14C6.77788 13.7348 7.13707 13.5858 7.5116 13.5858C7.88613 13.5858 8.24532 13.7348 8.51015 14L14.2818 19.78L25.4057 8.65C25.5368 8.51868 25.6925 8.41451 25.8638 8.34344C26.0351 8.27237 26.2188 8.23579 26.4042 8.23579C26.5897 8.23579 26.7733 8.27237 26.9446 8.34344C27.116 8.41451 27.2716 8.51868 27.4028 8.65C27.5339 8.78132 27.6379 8.93722 27.7089 9.1088C27.7799 9.28038 27.8164 9.46428 27.8164 9.65C27.8164 9.83572 27.7799 10.0196 27.7089 10.1912C27.6379 10.3628 27.5339 10.5187 27.4028 10.65L27.3828 10.63Z" fill="#13B43D"/>
</svg>
